<svg width="1280" height="640" viewBox="0 0 1280 640" fill="none" xmlns="http://www.w3.org/2000/svg">
  <defs>
    <linearGradient id="heroGradient" x1="0%" y1="0%" x2="100%" y2="100%">
      <stop offset="0%" style="stop-color:#0a0a0c"/>
      <stop offset="50%" style="stop-color:#18181b"/>
      <stop offset="100%" style="stop-color:#1a1a1f"/>
    </linearGradient>
    <linearGradient id="heroLinkedinGlow" x1="0%" y1="0%" x2="0%" y2="100%">
      <stop offset="0%" style="stop-color:#0077B5;stop-opacity:0.15"/>
      <stop offset="100%" style="stop-color:#0077B5;stop-opacity:0"/>
    </linearGradient>
    <linearGradient id="heroBlueGrad" x1="0%" y1="0%" x2="100%" y2="0%">
      <stop offset="0%" style="stop-color:#0077B5"/>
      <stop offset="50%" style="stop-color:#00A0DC"/>
      <stop offset="100%" style="stop-color:#0077B5"/>
    </linearGradient>
    <pattern id="heroDots" width="40" height="40" patternUnits="userSpaceOnUse">
      <circle cx="20" cy="20" r="1" fill="#3f3f46" opacity="0.4"/>
    </pattern>
  </defs>
  
  <rect width="1280" height="640" fill="url(#heroGradient)"/>
  <rect width="1280" height="640" fill="url(#heroDots)"/>
  <rect width="1280" height="250" fill="url(#heroLinkedinGlow)"/>
  
  <!-- Top accent line -->
  <rect x="0" y="0" width="1280" height="3" fill="url(#heroBlueGrad)"/>
  
  <!-- Vertical content delimiters -->
  <rect x="120" y="0" width="1" height="640" fill="#27272a"/>
  <rect x="1160" y="0" width="1" height="640" fill="#27272a"/>
  
  <!-- Decorative nodes -->
  <circle cx="120" cy="120" r="5" fill="#0077B5"/>
  <circle cx="1160" cy="520" r="5" fill="#0077B5" opacity="0.5"/>
  
  <g transform="translate(160, 180)">
    <!-- Badge -->
    <rect x="0" y="0" width="220" height="40" rx="4" fill="#1f1f23" stroke="#0077B5" stroke-width="1"/>
    <circle cx="20" cy="20" r="8" fill="#0077B5"/>
    <text x="40" y="26" font-family="system-ui, -apple-system, sans-serif" font-size="14" font-weight="500" fill="#70B5F9">Chrome Extension</text>
    
    <!-- Main title -->
    <text x="0" y="110" font-family="system-ui, -apple-system, sans-serif" font-size="80" font-weight="700" fill="#fafafa" letter-spacing="-3">Let's Tag Fast</text>
    
    <!-- Subtitle -->
    <text x="0" y="180" font-family="system-ui, -apple-system, sans-serif" font-size="28" fill="#a1a1aa">Bulk tag LinkedIn users and organizations</text>
    <text x="0" y="220" font-family="system-ui, -apple-system, sans-serif" font-size="28" fill="#71717a">in your posts with a single click.</text>
    
    <!-- Feature pills -->
    <g transform="translate(0, 280)">
      <rect x="0" y="0" width="120" height="36" rx="4" fill="#0077B5"/>
      <text x="18" y="24" font-family="system-ui, -apple-system, sans-serif" font-size="13" font-weight="600" fill="#ffffff">One-Click</text>
      
      <rect x="135" y="0" width="130" height="36" rx="4" fill="#27272a" stroke="#3f3f46" stroke-width="1"/>
      <text x="155" y="24" font-family="system-ui, -apple-system, sans-serif" font-size="13" fill="#a1a1aa">Organized</text>
      
      <rect x="280" y="0" width="120" height="36" rx="4" fill="#27272a" stroke="#3f3f46" stroke-width="1"/>
      <text x="300" y="24" font-family="system-ui, -apple-system, sans-serif" font-size="13" fill="#a1a1aa">Bulk Insert</text>
      
      <rect x="415" y="0" width="130" height="36" rx="4" fill="#27272a" stroke="#3f3f46" stroke-width="1"/>
      <text x="435" y="24" font-family="system-ui, -apple-system, sans-serif" font-size="13" fill="#a1a1aa">100% Private</text>
    </g>
  </g>
  
  <!-- Profile cards visualization -->
  <g transform="translate(820, 120)">
    <!-- Back card -->
    <rect x="60" y="200" width="280" height="80" rx="6" fill="#1a1a1f" stroke="#27272a" stroke-width="1"/>
    <circle cx="105" cy="240" r="22" fill="#0077B5" opacity="0.1"/>
    <rect x="145" y="225" width="150" height="12" rx="2" fill="#27272a"/>
    <rect x="145" y="245" width="100" height="10" rx="2" fill="#1f1f23"/>
    
    <!-- Middle card -->
    <rect x="30" y="100" width="280" height="80" rx="6" fill="#1f1f23" stroke="#3f3f46" stroke-width="1"/>
    <circle cx="75" cy="140" r="22" fill="#0077B5" opacity="0.2"/>
    <circle cx="75" cy="140" r="14" fill="#0077B5" opacity="0.3"/>
    <rect x="115" y="125" width="160" height="12" rx="2" fill="#3f3f46"/>
    <rect x="115" y="145" width="110" height="10" rx="2" fill="#27272a"/>
    
    <!-- Front card (highlighted) -->
    <rect x="0" y="0" width="280" height="80" rx="6" fill="#1f1f23" stroke="#0077B5" stroke-width="2"/>
    <circle cx="45" cy="40" r="22" fill="#0077B5" opacity="0.3"/>
    <circle cx="45" cy="40" r="14" fill="#0077B5" opacity="0.5"/>
    <rect x="85" y="25" width="150" height="12" rx="2" fill="#52525b"/>
    <rect x="85" y="45" width="100" height="10" rx="2" fill="#3f3f46"/>
    
    <!-- Tag button on front card -->
    <rect x="210" y="25" width="50" height="28" rx="4" fill="#0077B5"/>
    <text x="222" y="44" font-family="system-ui, -apple-system, sans-serif" font-size="11" font-weight="600" fill="#ffffff">Tag</text>
  </g>
  
  <!-- Bottom accent -->
  <rect x="0" y="637" width="1280" height="3" fill="url(#heroBlueGrad)" opacity="0.4"/>
  
  <!-- Corner decorations -->
  <rect x="0" y="0" width="50" height="3" fill="#0077B5"/>
  <rect x="0" y="0" width="3" height="50" fill="#0077B5"/>
  <rect x="1230" y="637" width="50" height="3" fill="#0077B5" opacity="0.6"/>
  <rect x="1277" y="590" width="3" height="50" fill="#0077B5" opacity="0.6"/>
</svg>